<svg xmlns="http://www.w3.org/2000/svg" viewBox="0 0 14.61 13.49"><defs><style>.cls-1{fill:#bd1a18;fill-rule:evenodd;}</style></defs><title>cel</title><g id="Capa_2" data-name="Capa 2"><g id="Capa_1-2" data-name="Capa 1"><path class="cls-1" d="M0,3.3A4.15,4.15,0,0,1,1.08.69a2.27,2.27,0,0,1,2-.68.83.83,0,0,1,.53.45c.45,1,.86,2,1.25,3A.76.76,0,0,1,4.8,4,7,7,0,0,1,4,5.1a.66.66,0,0,0-.1.92,9.86,9.86,0,0,0,4.9,4.15A.57.57,0,0,0,9.53,10c.35-.43.72-.85,1-1.29a.59.59,0,0,1,.79-.25c1,.46,2,.93,3,1.44a.76.76,0,0,1,.25.6,3.08,3.08,0,0,1-2.55,2.92,5,5,0,0,1-2.37-.15,13.84,13.84,0,0,1-8-5.86A8.41,8.41,0,0,1,.12,4.29C.06,4,0,3.63,0,3.3"/></g></g></svg>