<?xml version="1.0" encoding="UTF-8"?> <svg xmlns="http://www.w3.org/2000/svg" viewBox="0 0 17.42 17.42"><defs><style>.cls-1{fill:#fff;}.cls-2{fill:none;stroke:#fff;stroke-miterlimit:10;stroke-width:0.75px;}</style></defs><title>clock</title><g id="Capa_2" data-name="Capa 2"><g id="Capa_1-2" data-name="Capa 1"><path class="cls-1" d="M17,8.74A8.33,8.33,0,1,1,8.72.38,8.37,8.37,0,0,1,17,8.74m-1.11,0A7.23,7.23,0,1,0,8.7,15.93a7.23,7.23,0,0,0,7.24-7.22"></path><path class="cls-2" d="M17,8.74A8.33,8.33,0,1,1,8.72.38,8.37,8.37,0,0,1,17,8.74Zm-1.11,0A7.23,7.23,0,1,0,8.7,15.93,7.23,7.23,0,0,0,15.93,8.72Z"></path><path class="cls-1" d="M11,11.81c-.88-.88-1.77-1.77-2.65-2.67a.67.67,0,0,1-.18-.41c0-1.43,0-2.86,0-4.3a.52.52,0,0,1,0-.13h1c0,.15,0,.29,0,.43,0,1.13,0,2.26,0,3.39a1,1,0,0,0,.26.61c.75.79,1.53,1.55,2.28,2.31l-.77.77"></path><path class="cls-2" d="M11,11.81c-.88-.88-1.77-1.77-2.65-2.67a.67.67,0,0,1-.18-.41c0-1.43,0-2.86,0-4.3a.52.52,0,0,1,0-.13h1c0,.15,0,.29,0,.43,0,1.13,0,2.26,0,3.39a1,1,0,0,0,.26.61c.75.79,1.53,1.55,2.28,2.31Z"></path></g></g></svg> 