<?xml version="1.0" encoding="utf-8"?>
<!-- Generator: Adobe Illustrator 21.0.0, SVG Export Plug-In . SVG Version: 6.00 Build 0)  -->
<svg version="1.1" id="Capa_1" xmlns="http://www.w3.org/2000/svg" xmlns:xlink="http://www.w3.org/1999/xlink" x="0px" y="0px"
	 viewBox="0 0 71 78" style="enable-background:new 0 0 71 78;" xml:space="preserve">
<style type="text/css">
	.st0{fill:#020202;}
	.st1{filter:url(#Adobe_OpacityMaskFilter);}
	.st2{fill:#FFFFFF;}
	.st3{mask:url(#c_1_);}
</style>
<g>
	<g>
		<path class="st0" d="M34.3,22.8c-0.4,0-0.8-0.1-1.2-0.4c-0.8-0.7-0.9-1.9-0.2-2.7c0.6-0.7,1-1.3,1-2.4c0-1.2-0.4-1.7-1.1-2.6
			c-0.9-1-2-2.4-2-5c0-2.6,1.2-4,1.9-4.9c0.6-0.8,1.8-0.9,2.6-0.2c0,0,0,0,0,0c0.8,0.7,0.9,1.9,0.2,2.7c-0.6,0.8-1,1.3-1,2.4
			c0,1.2,0.4,1.7,1.1,2.6c0.9,1,2,2.4,2,5c0,2.4-1,3.7-1.9,4.8C35.3,22.5,34.8,22.8,34.3,22.8"/>
	</g>
	<g transform="translate(40.45)">
		<defs>
			<filter id="Adobe_OpacityMaskFilter" filterUnits="userSpaceOnUse" x="0.1" y="0.3" width="6.9" height="26.4">
				<feColorMatrix  type="matrix" values="1 0 0 0 0  0 1 0 0 0  0 0 1 0 0  0 0 0 1 0"/>
			</filter>
		</defs>
		<mask maskUnits="userSpaceOnUse" x="0.1" y="0.3" width="6.9" height="26.4" id="c_1_">
			<g class="st1">
				<path id="b_1_" class="st2" d="M0.1,0.3H7v26.4H0.1V0.3z"/>
			</g>
		</mask>
		<g class="st3">
			<path class="st0" d="M1.9,26.7c-1,0-1.9-0.8-1.9-1.9c0-2.6,1.2-4,2-5c0.7-0.8,1.1-1.4,1.1-2.6c0-1.2-0.4-1.7-1.1-2.6
				c-0.9-1-2-2.4-2-5s1.2-4,2-5c0.7-0.8,1.1-1.4,1.1-2.6c0-1,0.8-1.9,1.9-1.9S7,1.1,7,2.2c0,2.6-1.2,4-2,5C4.2,8,3.8,8.5,3.8,9.7
				c0,1.2,0.4,1.7,1.1,2.6c0.9,1,2,2.4,2,5c0,2.6-1.2,4-2,5c-0.7,0.8-1.1,1.4-1.1,2.6C3.8,25.8,3,26.7,1.9,26.7"/>
		</g>
	</g>
	<g>
		<path class="st0" d="M40.3,77.5c-14.2,0-24.7-6.3-28.5-16.9C7,60.8,3.2,59,1.3,55.6c-1.9-3.2-1.6-7.4,0.6-10.4
			c1.2-1.7,5-2.8,7.4-3.2c0.1-2.3,0.3-3.7,0.4-4.2c0.2-1.7,1-4.9,30.4-4.9c29.7,0,30.2,3.2,30.4,4.9l0,0.1
			c0.1,0.8,2.3,19.1-7.9,30.7C57.4,74.5,49.9,77.5,40.3,77.5z M15.1,56.1l0.5,1.7c2.7,9.8,11.7,15.4,24.8,15.4
			c8.3,0,14.7-2.5,19-7.5c7.8-8.8,7.2-23,6.9-26.5c-2.2-0.8-10.5-1.9-26.2-1.9c-14.9,0-23.9,1.1-26.2,1.9c-0.2,1.4-0.5,4.7-0.1,9
			c0.3,2.1,0.6,4.5,0.9,6.3C14.8,55,14.9,55.6,15.1,56.1z M5.3,47.9c-1.1,1.6-1.2,3.9-0.3,5.5c1,1.7,2.9,2.7,5.5,2.8
			c0-0.2-0.1-0.4-0.1-0.5c-0.6-2.9-1-5.6-1.1-8c0-0.5-0.1-0.9-0.1-1.3C7.7,46.8,5.9,47.4,5.3,47.9z"/>
	</g>
</g>
</svg>
