<svg xmlns="http://www.w3.org/2000/svg" viewBox="0 0 18.08 18.08"><defs><style>.cls-1{fill:#bd1a18;}</style></defs><title>instagram</title><g id="Capa_2" data-name="Capa 2"><g id="Capa_1-2" data-name="Capa 1"><path class="cls-1" d="M12.93,18.08H5.15A5.15,5.15,0,0,1,0,12.94V5.15A5.16,5.16,0,0,1,5.15,0h7.79a5.16,5.16,0,0,1,5.15,5.15v7.79a5.15,5.15,0,0,1-5.15,5.14M5.15,1.55a3.6,3.6,0,0,0-3.6,3.6v7.79a3.6,3.6,0,0,0,3.6,3.59h7.79a3.6,3.6,0,0,0,3.6-3.59V5.15a3.6,3.6,0,0,0-3.6-3.6Z"/><path class="cls-1" d="M9,13.67A4.63,4.63,0,1,1,13.67,9,4.63,4.63,0,0,1,9,13.67M9,6A3.08,3.08,0,1,0,12.12,9,3.08,3.08,0,0,0,9,6"/><path class="cls-1" d="M15,4.15A1.11,1.11,0,1,1,13.87,3,1.12,1.12,0,0,1,15,4.15"/></g></g></svg>