<?xml version="1.0" encoding="utf-8"?>
<!-- Generator: Adobe Illustrator 21.0.0, SVG Export Plug-In . SVG Version: 6.00 Build 0)  -->
<svg version="1.1" id="Capa_1" xmlns="http://www.w3.org/2000/svg" xmlns:xlink="http://www.w3.org/1999/xlink" x="0px" y="0px"
	 viewBox="0 0 182.2 56.5" style="enable-background:new 0 0 182.2 56.5;" xml:space="preserve">
<style type="text/css">
	.st0{fill:#FFFFFF;}
</style>
<title>logo-lynch</title>
<g id="Capa_2">
	<g id="Capa_1-2">
		<path class="st0" d="M51.9,55.5c-0.2,0.1-0.4,0.2-0.7,0.2c-0.2,0-0.4,0-0.6-0.1c-0.2-0.1-0.3-0.2-0.5-0.3
			c-0.1-0.1-0.2-0.3-0.3-0.5c-0.1-0.2-0.1-0.4-0.1-0.6c0-0.2,0-0.4,0.1-0.6c0.1-0.2,0.2-0.3,0.3-0.5c0.1-0.1,0.3-0.2,0.5-0.3
			c0.4-0.2,0.9-0.2,1.2,0.1c0.2,0.1,0.4,0.3,0.5,0.5l0.6-0.6c-0.2-0.3-0.5-0.5-0.8-0.6c-0.3-0.2-0.7-0.2-1-0.2
			c-0.6,0-1.2,0.2-1.6,0.7c-0.6,0.7-0.8,1.7-0.5,2.5c0.1,0.3,0.3,0.5,0.5,0.7c0.2,0.2,0.4,0.4,0.7,0.5c0.3,0.1,0.6,0.2,0.9,0.2
			c0.3,0,0.7-0.1,1-0.2c0.3-0.2,0.6-0.4,0.8-0.7L52.4,55C52.2,55.2,52.1,55.4,51.9,55.5z"/>
		<path class="st0" d="M57.1,52l-2,4.5H56l0.4-0.9h2l0.4,0.9h0.9l-2-4.5H57.1z M56.7,54.8l0.7-1.6l0.7,1.6H56.7z"/>
		<polygon class="st0" points="62.2,56.4 63,56.4 63,54.4 65,54.4 65,53.7 63,53.7 63,52.7 65,52.7 65,52 62.2,52 		"/>
		<polygon class="st0" points="69.9,50.5 69.1,50.5 68.6,51.5 69.2,51.5 		"/>
		<polygon class="st0" points="67.6,56.4 70.4,56.4 70.4,55.7 68.4,55.7 68.4,54.4 70.4,54.4 70.4,53.7 68.4,53.7 68.4,52.7 
			70.4,52.7 70.4,52 67.6,52 		"/>
		<path class="st0" d="M79.4,52.4c-0.1-0.1-0.3-0.2-0.5-0.3C78.8,52,78.6,52,78.4,52h-1.5v4.5h0.8V55h0.7c0.4,0,0.7-0.2,1-0.4
			c0.1-0.1,0.2-0.3,0.3-0.5c0.1-0.2,0.1-0.4,0.1-0.6c0-0.2,0-0.4-0.1-0.6C79.7,52.7,79.6,52.5,79.4,52.4z M79,53.8
			c0,0.1-0.1,0.2-0.2,0.3c-0.1,0.1-0.2,0.1-0.3,0.2c-0.1,0-0.2,0.1-0.3,0.1h-0.5v-1.7h0.5c0.1,0,0.2,0,0.3,0.1
			c0.1,0,0.2,0.1,0.3,0.2c0.1,0.1,0.1,0.2,0.2,0.3c0,0.1,0.1,0.2,0.1,0.3C79.1,53.5,79,53.7,79,53.8z"/>
		<path class="st0" d="M83.4,52l-2,4.5h0.9l0.4-0.9h2l0.4,0.9H86L84,52H83.4z M83.1,54.8l0.7-1.6l0.7,1.6H83.1z"/>
		<path class="st0" d="M91.5,55.9l-0.1-0.3l-0.1-0.2l-0.1-0.2L91.3,55c0-0.1-0.1-0.2-0.2-0.3c-0.1-0.1-0.2-0.2-0.3-0.2
			c0.1,0,0.2-0.1,0.3-0.2c0.1-0.1,0.2-0.2,0.3-0.3c0.1-0.1,0.1-0.2,0.2-0.3c0-0.1,0.1-0.3,0.1-0.4c0-0.2,0-0.3-0.1-0.5
			c-0.1-0.2-0.1-0.3-0.3-0.4c-0.1-0.1-0.2-0.2-0.4-0.3c-0.2-0.1-0.3-0.1-0.5-0.1h-1.7v4.5h0.8v-1.8h0.3c0.1,0,0.2,0,0.3,0.1
			c0.1,0,0.2,0.1,0.2,0.2c0.1,0.1,0.1,0.2,0.2,0.2c0,0.1,0.1,0.2,0.1,0.3l0.3,1h0.9c0-0.1-0.1-0.2-0.1-0.2
			C91.6,56.1,91.6,56,91.5,55.9z M90.6,53.6c0,0.1-0.1,0.2-0.2,0.2c-0.1,0.1-0.1,0.1-0.2,0.1C90.2,54,90.1,54,90,54h-0.6v-1.4H90
			c0.1,0,0.2,0,0.3,0c0.1,0,0.2,0.1,0.2,0.2c0.1,0.1,0.1,0.1,0.2,0.2c0,0.1,0.1,0.2,0.1,0.3C90.7,53.4,90.7,53.5,90.6,53.6
			L90.6,53.6z"/>
		<path class="st0" d="M96,52l-2,4.5h0.9l0.4-0.9h2l0.4,0.9h0.9l-2-4.5H96z M95.6,54.8l0.7-1.6l0.7,1.6H95.6z"/>
		<polygon class="st0" points="106.5,55.1 105.4,52 104.6,52 106.2,56.4 106.9,56.4 108.5,52 107.6,52 		"/>
		<path class="st0" d="M114.5,52.5c-0.2-0.2-0.4-0.4-0.7-0.5c-0.6-0.3-1.2-0.3-1.8,0c-0.3,0.1-0.5,0.3-0.7,0.5
			c-0.2,0.2-0.4,0.5-0.5,0.7c-0.2,0.6-0.2,1.2,0,1.8c0.1,0.3,0.3,0.5,0.5,0.7c0.2,0.2,0.4,0.4,0.7,0.5c0.5,0.2,1.2,0.2,1.7,0
			c0.3-0.1,0.5-0.3,0.7-0.5c0.2-0.2,0.4-0.5,0.5-0.7c0.2-0.6,0.2-1.2,0-1.8C114.8,53,114.7,52.7,114.5,52.5z M114.2,54.8
			c-0.1,0.2-0.2,0.3-0.3,0.5c-0.1,0.1-0.3,0.2-0.4,0.3c-0.2,0.1-0.4,0.1-0.6,0.1c-0.2,0-0.4,0-0.6-0.1c-0.2-0.1-0.3-0.2-0.4-0.3
			c-0.1-0.1-0.2-0.3-0.3-0.5c-0.1-0.4-0.1-0.8,0-1.2c0.1-0.2,0.2-0.3,0.3-0.5c0.1-0.1,0.3-0.2,0.4-0.3c0.2-0.1,0.4-0.1,0.6-0.1
			c0.2,0,0.4,0,0.6,0.1c0.2,0.1,0.3,0.2,0.4,0.3C114.3,53.6,114.4,54.2,114.2,54.8L114.2,54.8z"/>
		<polygon class="st0" points="118.7,52 117.9,52 117.9,56.4 120.7,56.4 120.7,55.6 118.7,55.6 		"/>
		<path class="st0" d="M124.9,52l-2,4.5h0.9l0.4-0.9h2l0.4,0.9h0.9l-2-4.5H124.9z M124.5,54.8l0.7-1.6l0.7,1.6H124.5z"/>
		<path class="st0" d="M133,55.9l-0.1-0.3l-0.1-0.2l-0.1-0.2l-0.1-0.2c0-0.1-0.1-0.2-0.2-0.3c-0.1-0.1-0.2-0.2-0.3-0.2
			c0.1,0,0.2-0.1,0.3-0.2c0.1-0.1,0.2-0.2,0.3-0.3c0.1-0.1,0.1-0.2,0.2-0.3c0-0.1,0.1-0.3,0.1-0.4c0-0.2,0-0.3-0.1-0.5
			c-0.1-0.2-0.1-0.3-0.3-0.4c-0.1-0.1-0.2-0.2-0.4-0.3c-0.2-0.1-0.3-0.1-0.5-0.1h-1.7v4.5h0.8v-1.8h0.3c0.1,0,0.2,0,0.3,0.1
			c0.1,0,0.2,0.1,0.2,0.2c0.1,0.1,0.1,0.2,0.2,0.2c0,0.1,0.1,0.2,0.1,0.3l0.3,1h0.9c0-0.1-0.1-0.2-0.1-0.2
			C133.1,56.1,133,56,133,55.9z M132.1,53.6c0,0.1-0.1,0.2-0.1,0.2c-0.1,0.1-0.1,0.1-0.2,0.1c-0.1,0-0.2,0-0.3,0h-0.6v-1.3h0.6
			c0.1,0,0.2,0,0.3,0c0.1,0,0.2,0.1,0.2,0.2c0.1,0.1,0.2,0.3,0.2,0.5C132.2,53.4,132.1,53.5,132.1,53.6L132.1,53.6z"/>
		<polygon class="st0" points="5.7,11.8 0,11.8 0,42.3 19.5,42.3 19.5,36.6 5.7,36.6 		"/>
		<polygon class="st0" points="77.9,20.9 90.9,42.3 96.4,42.3 96.4,11.8 90.9,11.8 90.9,31.7 78.7,11.8 72.5,11.8 72.5,42.3 
			77.9,42.3 		"/>
		<path class="st0" d="M135.2,36c-1.4,0.9-3.1,1.3-4.7,1.3c-1.3,0-2.6-0.3-3.8-0.8c-1.2-0.5-2.2-1.3-3.1-2.2c-0.9-0.9-1.6-2-2.1-3.2
			c-0.5-1.2-0.8-2.6-0.8-3.9c0-1.4,0.2-2.7,0.8-4c0.5-1.2,1.2-2.3,2.1-3.2c0.9-0.9,1.9-1.7,3.1-2.2c2.7-1.2,5.8-1.1,8.4,0.4
			c1.4,0.8,2.6,1.9,3.4,3.3l3.9-4.2c-1.4-1.8-3.1-3.2-5.1-4.3c-2.1-1.1-4.4-1.7-6.8-1.6c-4.1,0-8,1.6-10.9,4.6
			c-4.4,4.7-5.7,11.5-3.3,17.4c0.8,1.9,1.9,3.6,3.3,5c1.4,1.4,3.1,2.6,4.9,3.4c1.9,0.8,3.9,1.3,6,1.2c2.4,0,4.7-0.5,6.8-1.6
			c2-1.1,3.8-2.6,5.2-4.4l-3.9-4.2C137.7,34,136.5,35.1,135.2,36z"/>
		<polygon class="st0" points="176.7,11.8 176.7,23.9 165.3,23.9 165.3,11.8 159.8,11.8 159.8,42.3 165.3,42.3 165.3,28.8 
			176.7,28.8 176.7,42.3 182.2,42.3 182.2,11.8 		"/>
		<path class="st0" d="M54.2,7.7c-1.6,0.6-5.3,2.6-6.1,4.4l-7.6,12.5L33,11.8h-0.2c-1-1.8-4.4-3.6-5.9-4.2C22.6,6.2,17,4.2,13.7,0
			c-1.1,6.5,8.5,12,12.4,13.2c-2,0-6.8-1.5-8.7-2.4c0,0,1.3,6,13.6,9.4c-2.3,0.3-4.3-0.3-6.6-0.4c4.3,6,7.9,3.9,10.4,5.3l2.9,4.7
			v12.6h5.7V29.8l3.1-4.8c2.5-1.3,6.1,0.7,10.4-5.3c-2.3,0.1-4.3,0.8-6.6,0.4c12.3-3.4,13.5-9.4,13.5-9.4c-1.9,0.9-6.6,2.4-8.7,2.4
			C59,12,68.5,6.5,67.5,0C64.1,4.2,58.6,6.2,54.2,7.7z"/>
	</g>
</g>
</svg>
