<?xml version="1.0" encoding="utf-8"?>
<!-- Generator: Adobe Illustrator 21.0.0, SVG Export Plug-In . SVG Version: 6.00 Build 0)  -->
<svg version="1.1" id="Capa_1" xmlns="http://www.w3.org/2000/svg" xmlns:xlink="http://www.w3.org/1999/xlink" x="0px" y="0px"
	 viewBox="0 0 73.2 12.9" style="enable-background:new 0 0 73.2 12.9;" xml:space="preserve">
<style type="text/css">
	.st0{fill:#BD1A18;}
	.st1{fill:#FFFFFF;}
</style>
<title>omelet</title>
<g id="Capa_2">
	<g id="Capa_1-2">
		<path class="st0" d="M14.1,7.6c0.8,1.7,0,3.8-1.7,4.6c-0.5,0.2-0.9,0.3-1.5,0.3c-0.2,0-0.4,0-0.7-0.1c-1.5,0.6-3.3,0.6-4.8,0
			c-0.2-0.1-0.3-0.2-0.5-0.3c-0.5,0.2-1,0.3-1.5,0.4C1.6,12.6,0,11.2-0.1,9.2C-0.2,7.9,0.5,6.6,1.7,6c0.1-0.6,0.2-1.2,0.5-1.8
			c0.3-0.7,0.8-1.4,1.3-2c0.6-0.6,1.3-1,2-1.4c0.8-0.3,1.6-0.5,2.4-0.5c0.5,0,1.1,0.1,1.6,0.2c1.6-1,3.8-0.6,4.8,1
			c0.8,1.3,0.7,2.9-0.2,4.1c0,0.3,0.1,0.6,0.1,0.9C14.2,7,14.2,7.3,14.1,7.6"/>
		<path class="st0" d="M29.4,1v11.3c0,0.1,0,0.2-0.1,0.3c-0.1,0.1-0.2,0.1-0.3,0.1h-2.5c-0.1,0-0.2,0-0.3-0.1
			c-0.1-0.1-0.1-0.2-0.1-0.3V7c0-0.1,0-0.2-0.1-0.2c0,0,0,0,0,0c-0.1,0-0.2,0-0.3,0.1L23,11.4c-0.1,0.1-0.2,0.1-0.3,0.1
			c-0.1,0-0.2,0-0.3-0.1l-2.8-4.5c0-0.1-0.1-0.1-0.2-0.1c-0.1,0-0.2,0.1-0.2,0.2c0,0,0,0,0,0v5.3c0,0.1,0,0.2-0.1,0.3
			c-0.1,0.1-0.2,0.1-0.3,0.1h-2.5c-0.1,0-0.2,0-0.3-0.1C16,12.5,16,12.4,16,12.3V1c0-0.1,0-0.2,0.1-0.3c0.1-0.1,0.1-0.1,0.2-0.1h2.3
			c0.1,0,0.2,0,0.3,0.1c0.1,0.1,0.2,0.1,0.3,0.2l3.2,4.7c0.1,0.1,0.1,0.1,0.2,0.1c0.1,0,0.2,0,0.2-0.1l3.2-4.7
			c0.1-0.1,0.2-0.2,0.3-0.2c0.1-0.1,0.2-0.1,0.4-0.1H29C29.2,0.6,29.4,0.8,29.4,1C29.4,1,29.4,1,29.4,1"/>
		<path class="st0" d="M35.3,4v0.7c0,0.2,0.2,0.4,0.4,0.4l0,0h4.5c0.2,0,0.4,0.2,0.4,0.4c0,0,0,0,0,0v2.3c0,0.2-0.2,0.4-0.4,0.4l0,0
			h-4.5c-0.2,0-0.4,0.2-0.4,0.4c0,0,0,0,0,0v0.6c0,0.2,0.2,0.4,0.4,0.4l0,0h5.2c0.2,0,0.4,0.2,0.4,0.4c0,0,0,0,0,0v2.3
			c0,0.1,0,0.2-0.1,0.3c-0.1,0.1-0.2,0.1-0.3,0.1h-8.4c-0.1,0-0.2,0-0.3-0.1c-0.1-0.1-0.1-0.2-0.2-0.3V1c0-0.2,0.2-0.4,0.4-0.4l0,0
			h8.4c0.2,0,0.4,0.2,0.4,0.4c0,0,0,0,0,0v2.2c0,0.2-0.2,0.4-0.4,0.4l0,0h-5.1C35.5,3.6,35.3,3.8,35.3,4C35.3,4,35.3,4,35.3,4"/>
		<path class="st0" d="M52.4,10v2.3c0,0.1,0,0.2-0.1,0.3c-0.1,0.1-0.2,0.1-0.3,0.1h-8.3c-0.1,0-0.2,0-0.3-0.1
			c-0.1-0.1-0.1-0.2-0.1-0.3V1c0-0.1,0-0.2,0.1-0.3c0.1-0.1,0.2-0.1,0.3-0.1h2.5c0.2,0,0.4,0.2,0.4,0.4c0,0,0,0,0,0v8.3
			c0,0.1,0,0.2,0.1,0.3c0.1,0.1,0.2,0.1,0.3,0.1h5C52.2,9.6,52.4,9.8,52.4,10L52.4,10"/>
		<path class="st0" d="M56.8,4v0.7c0,0.2,0.2,0.4,0.4,0.4c0,0,0,0,0,0h4.5c0.2,0,0.4,0.2,0.4,0.4c0,0,0,0,0,0v2.3
			c0,0.2-0.2,0.4-0.4,0.4c0,0,0,0,0,0h-4.5c-0.2,0-0.4,0.2-0.4,0.4c0,0,0,0,0,0v0.6c0,0.2,0.2,0.4,0.4,0.4c0,0,0,0,0,0h5.2
			c0.2,0,0.4,0.2,0.4,0.4c0,0,0,0,0,0v2.3c0,0.1,0,0.2-0.1,0.3c-0.1,0.1-0.2,0.1-0.3,0.1h-8.4c-0.2,0-0.4-0.2-0.4-0.4v0V1
			c0-0.2,0.2-0.4,0.4-0.4l0,0h8.4c0.2,0,0.4,0.2,0.4,0.4c0,0,0,0,0,0v2.2c0,0.2-0.2,0.4-0.4,0.4l0,0h-5.1C57,3.6,56.8,3.8,56.8,4
			C56.8,4,56.8,4,56.8,4"/>
		<path class="st0" d="M72.8,3.6h-2.3C70.2,3.6,70,3.8,70,4c0,0,0,0,0,0v8.3c0,0.1,0,0.2-0.1,0.3c-0.1,0.1-0.2,0.1-0.3,0.1h-2.4
			c-0.2,0-0.4-0.2-0.4-0.4v0V4c0-0.1,0-0.2-0.1-0.3c-0.1-0.1-0.2-0.1-0.3-0.1H64c-0.1,0-0.2,0-0.3-0.1c-0.1-0.1-0.1-0.2-0.1-0.3V1
			c0-0.1,0-0.2,0.1-0.3c0.1-0.1,0.2-0.1,0.3-0.1h8.7c0.1,0,0.2,0,0.3,0.1c0.1,0.1,0.1,0.2,0.1,0.3v2.3c0,0.1,0,0.2-0.1,0.3
			C72.9,3.6,72.8,3.6,72.8,3.6"/>
		<path class="st1" d="M11.5,6.5C11.5,8.4,9.9,10,8,10c-1.9,0-3.5-1.6-3.5-3.5S6.1,3,8,3c0,0,0,0,0,0C9.9,3,11.5,4.6,11.5,6.5"/>
		<path class="st0" d="M10.5,5.5c0,0.5-0.4,0.9-0.9,0.9C9,6.5,8.6,6,8.6,5.5S9,4.6,9.5,4.6l0,0C10,4.6,10.5,5,10.5,5.5"/>
	</g>
</g>
</svg>
