<?xml version="1.0" encoding="UTF-8"?> <svg xmlns="http://www.w3.org/2000/svg" viewBox="0 0 15.12 22.28"><defs><style>.cls-1{fill:#fff;}</style></defs><title>pin</title><g id="Capa_2" data-name="Capa 2"><g id="Capa_1-2" data-name="Capa 1"><path class="cls-1" d="M8.21,0A20.12,20.12,0,0,1,10.4.57a7.4,7.4,0,0,1,4.72,7,6.78,6.78,0,0,1-.65,2.61c-.76,1.6-1.65,3.15-2.56,4.68-1.41,2.35-2.88,4.66-4.33,7-.09.14-.18.27-.31.45C6.54,21,5.82,19.83,5.12,18.62c-1.24-2.16-2.52-4.3-3.7-6.49a11.45,11.45,0,0,1-1.37-4A6.89,6.89,0,0,1,1.69,2.79,7.27,7.27,0,0,1,6.64.08,2,2,0,0,0,6.92,0Zm3.67,7.36a4.35,4.35,0,1,0-4.32,4.33,4.36,4.36,0,0,0,4.32-4.33"></path></g></g></svg> 