<svg xmlns="http://www.w3.org/2000/svg" viewBox="0 0 58 45.5"><defs><style>.cls-1{fill:#bd1a18;}</style></defs><title>shape</title><g id="Capa_2" data-name="Capa 2"><g id="Capa_1-2" data-name="Capa 1"><path class="cls-1" d="M44.56,14.18c2.2,0,7.33-1.64,9.33-2.58,0,0-1.39,6.45-14.56,10.1,2.46.37,4.65-.35,7.13-.47-4.59,6.42-8.45,4.25-11.17,5.69l-3.34,5.14V45.5H25.87V32l-3.12-5c-2.73-1.48-6.6.74-11.21-5.71,2.48.11,4.67.84,7.13.47C5.49,18,4.11,11.59,4.11,11.59c2,.95,7.13,2.6,9.33,2.58C9.16,12.92-1,7,.09,0,3.73,4.54,9.64,6.66,14.35,8.23c1.67.56,5.33,2.57,6.38,4.48h.16l8,13.78L37.12,13c.79-2,4.76-4.2,6.53-4.78C48.35,6.66,54.27,4.54,57.91,0,59,7,48.83,12.92,44.56,14.18"/></g></g></svg>