<?xml version="1.0" encoding="utf-8"?>
<!-- Generator: Adobe Illustrator 21.0.0, SVG Export Plug-In . SVG Version: 6.00 Build 0)  -->
<svg version="1.1" id="Capa_1" xmlns="http://www.w3.org/2000/svg" xmlns:xlink="http://www.w3.org/1999/xlink" x="0px" y="0px"
	 viewBox="0 0 58 45.5" style="enable-background:new 0 0 58 45.5;" xml:space="preserve">
<style type="text/css">
	.st0{fill:#FFFFFF;}
</style>
<title>shape</title>
<g id="Capa_2">
	<g id="Capa_1-2">
		<path class="st0" d="M44.6,14.2c2.2,0,7.3-1.6,9.3-2.6c0,0-1.4,6.4-14.6,10.1c2.5,0.4,4.7-0.4,7.1-0.5c-4.6,6.4-8.5,4.3-11.2,5.7
			L32,32.1v13.4h-6.1V32l-3.1-5c-2.7-1.5-6.6,0.7-11.2-5.7c2.5,0.1,4.7,0.8,7.1,0.5C5.5,18,4.1,11.6,4.1,11.6c2,0.9,7.1,2.6,9.3,2.6
			C9.2,12.9-1,7,0.1,0c3.6,4.5,9.6,6.7,14.3,8.2c1.7,0.6,5.3,2.6,6.4,4.5h0.2l8,13.8L37.1,13c0.8-2,4.8-4.2,6.5-4.8
			C48.3,6.7,54.3,4.5,57.9,0C59,7,48.8,12.9,44.6,14.2"/>
	</g>
</g>
</svg>
