
<svg version="1.0" xmlns="http://www.w3.org/2000/svg" width="100" height="100" viewBox="0 0 100 100"
 preserveAspectRatio="xMidYMid meet">

<g transform="translate(0.000000,512.000000) scale(0.100000,-0.100000)"
fill="#000000" stroke="none">
<path d="M4218 2545 l2 -1365 -1657 -2 -1657 -3 555 -558 554 -559 112 -18
c651 -110 1299 27 1846 390 581 387 976 983 1102 1667 52 279 56 619 10 873
l-15 85 -427 427 -428 428 3 -1365z"/>
<path d="M1207 3784 c-53 -29 -61 -91 -18 -135 35 -35 77 -38 114 -9 49 39 42
116 -14 145 -35 18 -47 18 -82 -1z"/>
<path d="M3740 3772 c0 -5 10 -17 21 -28 21 -19 21 -19 -52 -24 -41 -3 -74 -9
-74 -15 0 -5 33 -11 74 -13 l74 -3 -23 -24 c-12 -13 -19 -29 -15 -35 8 -13 85
55 85 75 0 15 -63 75 -78 75 -7 0 -12 -4 -12 -8z"/>
<path d="M2274 3743 c2 -10 10 -37 17 -61 16 -54 39 -53 53 3 l10 40 11 -40
c17 -59 38 -56 58 8 20 65 21 67 3 67 -7 0 -17 -18 -23 -42 l-9 -43 -14 43
c-16 51 -35 54 -44 7 -10 -49 -22 -51 -30 -5 -4 27 -11 40 -22 40 -10 0 -14
-6 -10 -17z"/>
<path d="M2460 3748 c0 -29 32 -108 44 -108 7 0 19 19 26 43 l14 42 9 -43 c12
-52 34 -53 52 -2 26 77 27 80 11 80 -8 0 -17 -14 -21 -32 -11 -52 -18 -55 -29
-13 -16 56 -33 55 -48 -2 l-12 -48 -11 44 c-10 42 -35 69 -35 39z"/>
<path d="M2658 3700 c19 -71 40 -77 58 -15 l11 40 12 -42 c7 -24 18 -43 25
-43 13 0 46 77 46 108 0 28 -24 5 -35 -33 l-10 -39 -13 42 c-16 51 -31 50 -47
-4 -12 -40 -17 -37 -29 19 -4 15 -13 27 -20 27 -12 0 -11 -10 2 -60z"/>
<path d="M2823 3658 c2 -7 10 -13 17 -13 7 0 15 6 18 13 2 7 -5 12 -18 12 -13
0 -20 -5 -17 -12z"/>
</g>
</svg>
